<?xml version="1.0" encoding="utf-8"?>
<!-- Generator: Adobe Illustrator 25.1.0, SVG Export Plug-In . SVG Version: 6.00 Build 0)  -->
<svg 
	id="Layer_1" 
	data-name="Layer 1" 
	xmlns="http://www.w3.org/2000/svg" 
	viewBox="0 0 360.97 320.17">
	<path id="svg-color" d="M193.74,100.09c-14-10.6-35.68-16-65-16H65.93v84.1H95.61c5.41,0,10.71.24,16,.76V121.62h13.85c14.72,0,25.67,2.1,32.65,6.46s10.59,11.58,10.59,21.83-3.43,17.92-10.36,22.7a31.52,31.52,0,0,1-8.79,4.24,165.38,165.38,0,0,1,36.9,17.29c1.34.81,2.68,1.69,4,2.56a61.55,61.55,0,0,0,13.91-14.14,57.16,57.16,0,0,0,10.48-33.82Q214.87,116.1,193.74,100.09Z" style="fill:#fff"/>
	<path d="M200.91,0H0V234.38H65.94v43.13a30.21,30.21,0,0,1,45.69.05V237.64a118,118,0,0,1,58,33.64,91.75,91.75,0,0,1,7,8.15,116.63,116.63,0,0,1,21,40.74h3.26a158,158,0,0,0,50.87-8.33C315.16,290.54,361,230.54,361,160.11,361,71.82,289.15,0,200.91,0ZM252,267.84a111.77,111.77,0,0,1-14.49,5.82,172.1,172.1,0,0,0-62.68-67.86h-.06a171,171,0,0,0-90.8-26H40.74V40.74H200.91c65.77,0,119.32,53.55,119.32,119.37A119.37,119.37,0,0,1,252,267.84Z" style="fill:#fff"/>
	<path d="M111.63,297.29a22.85,22.85,0,1,1-22.87-22.81A22.88,22.88,0,0,1,111.63,297.29Z" style="fill:#fff"/>
</svg>